<svg xmlns="http://www.w3.org/2000/svg" width="16" height="16" fill="none" viewBox="0 0 16 16">
  <path fill="#B0F45E" d="M8 1.234c-.18 0-.367.046-.52.133L2.52 4.234C2.2 4.42 2 4.767 2 5.14v5.72c0 .374.2.72.52.907l1.3.747c.633.306.847.313 1.14.313.933 0 1.473-.567 1.473-1.553V5.627a.148.148 0 0 0-.146-.147h-.62a.15.15 0 0 0-.154.147v5.647c0 .44-.453.873-1.18.506L2.967 11a.173.173 0 0 1-.074-.14V5.14c0-.06.027-.113.074-.14l4.96-2.86a.144.144 0 0 1 .146 0L13.033 5c.047.027.074.08.074.14v5.72a.174.174 0 0 1-.074.14l-4.96 2.86c-.04.027-.106.027-.153 0l-1.253-.76c-.054-.02-.107-.026-.14-.006-.354.2-.42.24-.747.34-.08.026-.207.073.047.213l1.653.98c.16.093.333.14.52.14s.36-.047.52-.14l4.96-2.86c.32-.187.52-.533.52-.907V5.14c0-.373-.2-.72-.52-.906L8.52 1.367A1.059 1.059 0 0 0 8 1.234Zm1.333 4.1c-1.413 0-2.26.593-2.26 1.593 0 1.073.84 1.387 2.2 1.52 1.62.16 1.747.4 1.747.72 0 .553-.447.787-1.487.787-1.32 0-1.6-.327-1.7-.98a.15.15 0 0 0-.146-.12h-.64c-.08 0-.14.06-.14.146 0 .827.453 1.827 2.626 1.827 1.567 0 2.467-.62 2.467-1.7 0-1.073-.72-1.353-2.247-1.56-1.54-.2-1.693-.307-1.693-.667 0-.3.133-.7 1.273-.7 1 0 1.394.22 1.547.907a.143.143 0 0 0 .14.113h.647a.129.129 0 0 0 .1-.046c.026-.027.046-.067.033-.107-.093-1.187-.88-1.733-2.467-1.733Z"/>
</svg>
