<svg xmlns="http://www.w3.org/2000/svg" width="16" height="16" fill="none" viewBox="0 0 16 16">
  <g clip-path="url(#clip0_129_274)">
    <path fill="#A6C6E0" d="M15.707 9.816a.338.338 0 0 0-.038-.08c-.094-.176-.318-.227-.672-.154-1.102.226-1.529.086-1.684-.014a15.877 15.877 0 0 0 2.028-4.553c.181-.7.532-2.349.081-3.153a1.066 1.066 0 0 0-.1-.158C14.462.607 13.2.017 11.673.001c-.996-.01-1.846.23-2.077.32a6.665 6.665 0 0 0-.344-.055A5.333 5.333 0 0 0 8.377.18C7.59.168 6.91.357 6.344.74 5.774.527 3.153-.356 1.531.794.623 1.436.206 2.582.287 4.203c.027.545.338 2.223.828 3.83.307 1.004.625 1.8.956 2.387.369.664.75 1.062 1.142 1.194.299.098.756.095 1.239-.486.42-.502.852-.992 1.297-1.471.29.157.604.241.926.251v.003a7.383 7.383 0 0 0-.164.203c-.226.287-.274.347-1 .497-.207.043-.756.155-.764.54a.4.4 0 0 0 .06.219c.152.282.615.406.677.422.89.222 1.67.06 2.248-.453-.011 1.487.051 2.945.23 3.392.147.369.508 1.27 1.647 1.27.166 0 .35-.021.552-.063 1.188-.255 1.704-.78 1.904-1.938.1-.58.268-1.916.359-2.734.011-.046.024-.08.038-.09 0 0 .047-.032.285.02l.029.004.17.015h.01c.564.027 1.273-.094 1.687-.286.429-.2 1.204-.689 1.064-1.113ZM1.58 7.918C1.084 6.294.795 4.66.772 4.204c-.073-1.448.278-2.456 1.041-2.996C3.038.342 5.04.848 5.885 1.122l-.006.006C4.53 2.49 4.562 4.818 4.567 4.96c0 .055.004.133.01.24.023.39.067 1.12-.049 1.946a2.463 2.463 0 0 0 .817 2.217 34.77 34.77 0 0 0-1.269 1.439c-.379.454-.64.367-.725.338-.262-.086-.542-.391-.826-.881-.32-.56-.642-1.355-.944-2.341m4.005 3.392a1.07 1.07 0 0 1-.288-.12c.06-.025.158-.06.322-.092.856-.177.988-.301 1.277-.667.078-.101.16-.2.244-.295a.268.268 0 0 0 .05-.087c.113-.1.181-.073.29-.028.104.043.206.173.247.317.02.068.041.196-.03.296-.603.844-1.481.834-2.112.676Zm1.396-2.66-.035.094c-.088.238-.171.46-.222.67a1.682 1.682 0 0 1-1.207-.536 1.991 1.991 0 0 1-.522-1.666c.122-.872.077-1.632.053-2.04l-.008-.146c.197-.175 1.11-.664 1.762-.515.297.068.478.27.553.619.39 1.802.052 2.553-.22 3.157-.055.12-.106.24-.153.364m4.909 3.048c-.01.118-.024.25-.041.397l-.098.292a.267.267 0 0 0-.012.072c-.004.317-.036.433-.076.58-.066.23-.107.466-.12.705-.074.943-.586 1.485-1.612 1.704-1.01.217-1.189-.33-1.346-.814a4.66 4.66 0 0 0-.052-.151c-.144-.391-.127-.942-.105-1.704.01-.374-.017-1.267-.22-1.764.003-.195.007-.393.013-.594a.267.267 0 0 0-.011-.076 1.328 1.328 0 0 0-.03-.138c-.08-.286-.28-.524-.52-.624a.733.733 0 0 0-.477-.058c.044-.184.122-.391.206-.616l.035-.095c.04-.107.09-.217.142-.333.284-.632.673-1.498.25-3.452-.157-.732-.686-1.09-1.487-1.007-.48.05-.92.244-1.14.355a3.997 3.997 0 0 0-.13.069c.061-.737.292-2.116 1.157-2.988.064-.065.132-.126.202-.184a.233.233 0 0 0 .097-.043c.501-.38 1.13-.566 1.868-.555.273.004.534.022.782.054 1.294.237 2.163.965 2.691 1.589.543.64.837 1.287.954 1.636-.882-.09-1.482.084-1.787.52-.661.945.363 2.78.855 3.664.09.16.168.3.193.36.16.388.367.648.518.837.047.058.092.114.126.163-.266.078-.746.256-.703 1.145-.017.181-.035.362-.056.543-.03.139-.046.307-.066.51Zm.593-1.08c-.027-.555.18-.613.398-.674l.09-.027a.659.659 0 0 0 .089.068c.38.25 1.055.28 2.005.09a2.687 2.687 0 0 1-.636.4c-.273.127-.73.222-1.164.243-.48.023-.724-.053-.782-.1Zm.38-6.181a4.67 4.67 0 0 1-.07.667c-.037.239-.075.485-.085.785-.01.29.027.593.062.886.071.592.144 1.2-.138 1.8a2.66 2.66 0 0 1-.125-.256 5.319 5.319 0 0 0-.217-.411c-.41-.736-1.371-2.46-.88-3.163.253-.362.895-.377 1.453-.308Zm.152 4.675-.057-.071-.023-.03c.484-.8.389-1.591.304-2.292a5.547 5.547 0 0 1-.058-.815c.008-.271.044-.503.078-.728.043-.277.087-.563.074-.9a.4.4 0 0 0 .008-.127c-.03-.324-.4-1.292-1.153-2.168a5.2 5.2 0 0 0-1.792-1.36 6.2 6.2 0 0 1 1.349-.124c1.368.03 2.45.542 3.216 1.522a.663.663 0 0 1 .044.066c.482.904-.183 4.184-1.99 7.027ZM7.139 5.036c-.017.12-.207.282-.414.282l-.054-.004a.533.533 0 0 1-.338-.21c-.03-.04-.08-.12-.07-.19a.147.147 0 0 1 .062-.1c.078-.06.234-.081.406-.057.211.03.428.129.407.279m5.287-.274c.007.053-.033.133-.102.206a.48.48 0 0 1-.272.149L12 5.12c-.196 0-.361-.156-.374-.247-.016-.118.176-.207.374-.235.198-.028.408.006.424.124Z"/>
  </g>
  <defs>
    <clipPath id="clip0_129_274">
      <path fill="#fff" d="M0 0h16v16H0z"/>
    </clipPath>
  </defs>
</svg>
