<svg xmlns="http://www.w3.org/2000/svg" width="16" height="16" fill="none" viewBox="0 0 16 16">
  <path fill="#72B5FF" d="M2 2h12v12H2V2Zm7.14 9.907c.333.653 1.007 1.153 2.06 1.153 1.067 0 1.867-.553 1.867-1.573 0-.94-.54-1.36-1.5-1.773l-.28-.12c-.487-.207-.694-.347-.694-.68 0-.274.207-.487.54-.487.32 0 .534.14.727.487l.873-.58c-.366-.64-.886-.887-1.6-.887-1.006 0-1.653.64-1.653 1.487 0 .92.54 1.353 1.353 1.7l.28.12c.52.226.827.366.827.753 0 .32-.3.553-.767.553-.553 0-.873-.286-1.113-.686l-.92.533ZM8.667 7.5H5.333v1h1v4.834H7.5V8.5h1.167v-1Z"/>
</svg>
