<svg xmlns="http://www.w3.org/2000/svg" width="33" height="32" fill="none" viewBox="0 0 33 32">
  <path fill="#BFBAB0" d="M13.76 16.667c.027-.227.053-.44.053-.667 0-.227-.026-.44-.053-.667l1.44-1.08c.133-.093.133-.253.08-.426l-1.373-2.307c-.08-.147-.267-.187-.414-.147l-1.706.667a5.519 5.519 0 0 0-1.16-.653l-.267-1.774c0-.16-.147-.28-.32-.28H7.333c-.2 0-.346.12-.373.28l-.293 1.76c-.387.16-.774.4-1.134.627l-1.706-.667c-.16-.04-.334 0-.414.174L2.04 13.813c-.08.187-.04.334.093.44l1.44 1.08a5.76 5.76 0 0 0-.04.667c0 .227.027.44.054.667L2.133 17.76c-.133.093-.133.28-.08.427l1.374 2.306c.08.174.266.174.413.174L5.547 20c.36.24.746.453 1.16.627l.266 1.76c.014.16.16.28.36.28h2.72c.174 0 .32-.12.334-.28l.28-1.76c.4-.16.786-.4 1.146-.627l1.707.667c.16.04.333 0 .413-.174l1.4-2.306a.422.422 0 0 0-.106-.427l-1.467-1.093Zm-5.093 1.666c-1.334 0-2.4-1.04-2.4-2.333 0-1.293 1.066-2.333 2.4-2.333 1.333 0 2.4 1.04 2.4 2.333 0 1.293-1.067 2.333-2.4 2.333Zm14.666-17H10A2.667 2.667 0 0 0 7.333 4v4H10V5.333h13.333v21.334H10V24H7.333v4A2.667 2.667 0 0 0 10 30.667h13.333A2.666 2.666 0 0 0 26 28V4a2.667 2.667 0 0 0-2.667-2.667Z"/>
</svg>
