<svg xmlns="http://www.w3.org/2000/svg" width="32" height="32" fill="none" viewBox="0 0 32 32">
  <path fill="#212121" d="M0 0h32v32H0z"/>
  <path fill="#fff" fill-rule="evenodd" d="M13.707 12.704c.778-1.237 2.122-.96 2.784 0 .344.5.483.693.602.859.11.152.202.28.422.602.81 1.387 2.922 3.51 2.922 3.51 1.123 1.102.8 2.496-1.152 2.496-2.733.428-4.023.792-4.76 1-.31.088-.521.148-.701.173-.63.117-1.75 0-1.75 0-1.266-.133-1.994-.65-2.527-1.067-.534-.416-1.195-1.589 0-2.602a25.296 25.296 0 0 0 4.16-4.971Zm2.648 3.68c.465-.125.76-.484.66-.861-.102-.378-.561-.501-1.026-.376-.465.124-.76.449-.659.827.101.378.56.535 1.025.41Z" clip-rule="evenodd"/>
  <path fill="#fff" d="M23.445 11.957c0 .727-.448 1.526-1.177 1.526-.729 0-1.276-.799-1.276-1.526s.481-1.504 1.21-1.504c.73 0 1.243.777 1.243 1.504Z"/>
</svg>
