<svg xmlns="http://www.w3.org/2000/svg" width="33" height="32" fill="none" viewBox="0 0 33 32">
  <path fill="#DCD7CD" d="m30.48 24.48-5.667 5.667-6.933-6.934 2.36-2.36 1.333 1.334 3.294-3.307 1.893 1.893-1.947 1.894L26.227 24l1.893-1.867 2.36 2.347ZM9.147 14.44l-6.96-6.92 5.666-5.667 2.347 2.36L6.907 7.52l1.426 1.413 3.28-3.306 1.894 1.893-1.894 1.88 1.334 1.333-3.8 3.707ZM19.08 12l1.253 1.24L8.227 25.333H7v-1.226L19.08 12Zm4.813-8c-.333 0-.68.12-.946.387l-2.454 2.44 5 5 2.454-2.494c.52-.52.52-1.333 0-1.88l-3.12-3.066A1.306 1.306 0 0 0 23.893 4ZM19.08 8.24 4.333 23v5h5L24.08 13.24l-5-5Z"/>
</svg>
