<svg xmlns="http://www.w3.org/2000/svg" width="26" height="26" fill="none" viewBox="0 0 26 26">
  <path fill="#03417D" d="M0 0h26v26H0z"/>
  <path fill="#E8E8E8" d="M15.877 10.313h1.595c-.945-1.56-2.591-3.024-5.044-2.305-1.993.563-2.782 2.227-2.782 3.631 1.049-3.085 4.689-3.458 6.231-1.326ZM17.559 14.413h-1.49a3.539 3.539 0 0 1-1.509 1.542c.962-.121 2.227-.615 2.999-1.542Z"/>
  <path fill="#E8E8E8" d="M7.54 7.895c0-.199-.165-.355-.355-.355H5.677a.357.357 0 0 0-.356.355v4.958c0 3.926 3.684 7.314 7.315 7.314 2.773.078 4.88-.97 6.543-3.068 1.058-1.482 1.474-2.582 1.534-4.671-.565 5.264-4.688 5.99-6.361 6.119-1.673.129-3.493-.702-4.68-1.586-1.187-.884-2.132-2.93-2.132-5.27V7.895Z"/>
  <circle cx="13.295" cy="12.445" r="2.184" fill="#E8E8E8"/>
  <path fill="#E8E8E8" d="M18.66 7.566a.278.278 0 0 0-.287.286v4.385c.19 3.814-2.114 5.304-4.706 5.989 4.1.251 6.708-2.869 6.708-5.79V7.853a.273.273 0 0 0-.286-.286h-1.43Z"/>
  <path fill="#E8E8E8" d="M11.388 8.008c.763-.33 1.863-.407 2.678-.234-1.898.002-2.73.442-3.519 1.153-2.045 2.114-1.265 6.205 2.193 7.141 1.915.416 3.519-.043 4.767-1.5-1.014 2.176-3.285 3.034-5.088 2.73-1.707-.233-3.258-1.308-3.917-3.345-.667-2.357.2-4.853 2.886-5.945Z"/>
</svg>
