<svg xmlns="http://www.w3.org/2000/svg" width="27" height="27" fill="none" viewBox="0 0 27 27">
  <path fill="#fff" d="M.64.143h26v26h-26z"/>
  <path fill="#5633D0" d="M5 9.117h2.817v4.718c0 1.673 2.431 1.637 2.431 0V9.117h2.817v4.935c0 4.682-8.065 4.694-8.065 0V9.117Z"/>
  <path fill="#5633D0" fill-rule="evenodd" d="M14.726 9.117v11.146h2.792v-3.202c1.24.722 2.805.686 4.19 0 3.069-1.854 2.563-6.331 0-7.655-2.36-1.219-4.213 0-4.213 0l-.506.36-.337-.65h-1.926Zm4.417 5.97c1.03 0 1.83-.835 1.83-1.866 0-1.03-.8-1.866-1.83-1.866s-1.83.836-1.83 1.866c0 1.03.8 1.866 1.83 1.866Z" clip-rule="evenodd"/>
  <circle cx="6.408" cy="6.408" r="1.408" fill="#73C5FE"/>
  <circle cx="11.633" cy="6.408" r="1.408" fill="#73C5FE"/>
</svg>
